<svg height="512" viewBox="0 0 512 512" width="512" xmlns="http://www.w3.org/2000/svg"><g id="filled_outline" data-name="filled outline"><path d="m400.764 305.528-24.478-48.957v-8.428a120.143 120.143 0 0 0 -120.143-120.143 120.143 120.143 0 0 0 -120.143 120.143v.159a434.005 434.005 0 0 0 18.3 124.709l5.7 18.989-16 96h144v-64h72l16.286-104h15.534a10 10 0 0 0 8.944-14.472z" fill="#f7ba61"/><path d="m272 168h-32a72 72 0 0 0 -72 72v56h32a24 24 0 0 0 24-24h10a22 22 0 0 0 22-22v-10h88a72 72 0 0 0 -72-72z" fill="#d18d28"/><path d="m256 224a8 8 0 0 1 -8-8v-24a8 8 0 0 1 16 0v24a8 8 0 0 1 -8 8z" fill="#027e2a"/><path d="m283 187.475 10.12-5.013a180.117 180.117 0 0 0 62.367-50.45q1.045-1.343 2.067-2.7l23.716-31.622a187.407 187.407 0 0 0 -111.521 69.156l3.584-19.116a195.918 195.918 0 0 0 -17.333-123.73 195.918 195.918 0 0 0 -17.328 123.726l3.584 19.116a187.407 187.407 0 0 0 -111.521-69.156l23.716 31.622q1.022 1.362 2.067 2.7a180.117 180.117 0 0 0 62.367 50.45l10.12 5.013a256.021 256.021 0 0 0 -54.624.2l-36.281 4.034 43.662 14.554a86.717 86.717 0 0 0 62.292-2.871 29.722 29.722 0 0 1 11.946-2.543 29.722 29.722 0 0 1 11.943 2.543 86.717 86.717 0 0 0 62.292 2.871l43.665-14.554-36.278-4.031a256.021 256.021 0 0 0 -54.622-.199z" fill="#029532"/><path d="m287.994 432a7.976 7.976 0 0 1 -3.572-.847l-20.36-10.18a57.683 57.683 0 0 1 -32.062-51.873v-25.1a8 8 0 0 1 16 0v25.1a41.771 41.771 0 0 0 23.217 37.565l20.361 10.181a8 8 0 0 1 -3.584 15.154z" fill="#d18d28"/><circle cx="320" cy="280" fill="#d18d28" r="16"/><path d="m137.9 493.171a8 8 0 0 0 6.1 2.829h144a8 8 0 0 0 8-8v-56h64a8 8 0 0 0 7.9-6.763l15.23-97.237h8.69a18 18 0 0 0 16.1-26.05l-23.633-47.267v-6.54a128.046 128.046 0 0 0 -9.458-48.315l1.6-.533a8 8 0 0 0 -1.647-15.541l-8.39-.932a128.217 128.217 0 0 0 -21.5-27.116 179.722 179.722 0 0 0 16.908-18.778q1.09-1.4 2.156-2.821l23.716-31.622a8 8 0 0 0 -7.972-12.644 195.4 195.4 0 0 0 -81.48 37.24 127.6 127.6 0 0 0 -13.891-3.959 205.246 205.246 0 0 0 -21.17-102.7 8 8 0 0 0 -14.31 0 205.244 205.244 0 0 0 -21.166 102.764 127.682 127.682 0 0 0 -13.807 3.965 195.4 195.4 0 0 0 -81.576-37.31 8 8 0 0 0 -7.969 12.644l23.717 31.622q1.067 1.422 2.155 2.82a179.781 179.781 0 0 0 17.051 18.917 128.217 128.217 0 0 0 -21.341 26.944l-8.7.966a8 8 0 0 0 -1.647 15.541l1.852.617a128.063 128.063 0 0 0 -9.418 48.231v.16a441.685 441.685 0 0 0 18.641 127.008l5.162 17.208-15.694 94.166a8 8 0 0 0 1.791 6.486zm207.7-312.66-7.094-.788q-10.879-1.209-21.857-1.509a192.286 192.286 0 0 0 16.222-11.847 112.439 112.439 0 0 1 12.729 14.144zm-62.8-41.324c.335.081.667.173 1 .258-.395.373-.793.742-1.185 1.118.066-.463.121-.918.185-1.376zm-53.588.068c.059.436.111.873.173 1.308-.371-.357-.75-.707-1.124-1.061.316-.081.632-.168.95-.247zm-66.382-12.155q-1-1.285-1.979-2.588l-9.876-13.168a179.407 179.407 0 0 1 84.951 60.4 8 8 0 0 0 14.193-6.367l-3.585-19.117a189.181 189.181 0 0 1 9.466-102.471 189.181 189.181 0 0 1 9.466 102.462l-3.585 19.117a8 8 0 0 0 14.193 6.367 179.407 179.407 0 0 1 84.951-60.4l-9.876 13.168q-.978 1.3-1.98 2.589a173.086 173.086 0 0 1 -59.6 48.2l-10.12 5.013a8 8 0 0 0 4.374 15.127 248.426 248.426 0 0 1 52.918.192l.077.009-9.108 3.035a78.588 78.588 0 0 1 -56.544-2.605 37.326 37.326 0 0 0 -30.321 0 78.576 78.576 0 0 1 -56.545 2.606l-9.108-3.035.077-.009a248.36 248.36 0 0 1 52.918-.192 8 8 0 0 0 4.374-15.127l-10.12-5.013a173.09 173.09 0 0 1 -59.611-48.193zm93.17 96.9a8 8 0 0 0 8-8v-5.584c.243.1.486.192.728.3a94.37 94.37 0 0 0 65.979 3.775 64.091 64.091 0 0 1 4.793 17.509h-79.5a8 8 0 0 0 -8 8v10a14.015 14.015 0 0 1 -14 14h-10a8 8 0 0 0 -8 8 16.019 16.019 0 0 1 -16 16h-24v-48a64.035 64.035 0 0 1 5.295-25.517 94.538 94.538 0 0 0 65.979-3.77c.241-.106.484-.2.726-.3v5.587a8 8 0 0 0 8 8zm-76.716-57.507a192.44 192.44 0 0 0 16.07 11.721q-10.964.3-21.857 1.509l-6.778.753a112.264 112.264 0 0 1 12.565-13.983zm-35.284 81.807v-.16a112.061 112.061 0 0 1 8.64-43.159l13.417 4.472a80.046 80.046 0 0 0 -6.057 30.547v56a8 8 0 0 0 8 8h32a32.058 32.058 0 0 0 30.988-24h3.012a30.034 30.034 0 0 0 30-30v-2h80a8 8 0 0 0 8-8 80.237 80.237 0 0 0 -6.056-30.544l13.668-4.556a112.056 112.056 0 0 1 8.674 43.243v8.428a8.007 8.007 0 0 0 .844 3.578l24.479 48.957a2 2 0 0 1 -1.789 2.894h-15.534a8 8 0 0 0 -7.9 6.763l-15.231 97.237h-63.267l-18.671-9.336a41.771 41.771 0 0 1 -23.217-37.564v-25.1a8 8 0 0 0 -16 0v25.1a57.683 57.683 0 0 0 32.062 51.876l15.938 7.968v51.056h-126.556l14.447-86.685a8.005 8.005 0 0 0 -.228-3.614l-5.7-18.988a425.7 425.7 0 0 1 -17.963-122.413z"/><circle cx="320" cy="280" r="16"/></g></svg>