<svg id="Layer_1" enable-background="new 0 0 512 512" height="512" viewBox="0 0 512 512" width="512" xmlns="http://www.w3.org/2000/svg"><g><path d="m256 21.996c-19.678 0-38.809 2.335-57.144 6.716l-178.629 171.455c-6.01 21.245-9.229 43.661-9.229 66.83 0 127.503 97.402 232.242 221.856 243.906l135.481-26.128c78.799-40.729 132.668-122.959 132.668-217.779-.001-135.309-109.692-245-245.003-245z" fill="#5c45bf"/><path d="m305.874 372.058c75.697 41.768 125.334-1.092 137.983-14.204-4.975-58.205-64.186-104.159-136.506-104.159-71.425 0-130.059 44.823-136.293 102.002 14.796-7.202 62.394-23.601 134.816 16.361z" fill="#d9f3fc"/><path d="m301.435 253.803c-68.722 2.395-124.316 46.302-130.378 101.894 11.076-5.391 40.533-15.933 85.022-4.134 1.215-1.03 2.078-1.557 2.078-1.557-4.175-20.744 16.949-26.333 16.949-26.333l14.533-23.021c0-19.443 21.86-26.866 21.86-26.866-6.813-3.916-9.221-13.236-10.064-19.983z" fill="#c0ecff"/><path d="m359.343 467.391c-16.031 5.398-33.585 8.382-51.992 8.382s-35.961-2.984-51.993-8.382l-22.505 43.513c7.622.714 15.339 1.096 23.147 1.096 40.492 0 78.684-9.831 112.335-27.224z" fill="#9ed369"/><path d="m296.333 477.9c-1.794-.898-3.42-1.869-4.922-2.887-12.62-1.202-24.719-3.804-36.054-7.621l-22.504 43.513c7.622.713 15.339 1.095 23.147 1.095 10.607 0 21.054-.681 31.305-1.989-6.286-18.67 9.028-32.111 9.028-32.111z" fill="#68c37d"/><path d="m307.351 42.47c-18.986 0-35.423-3.461-43.453-8.507l.001 225.033c0 3.044 1.794 5.832 4.603 7.005 24.853 10.38 52.843 10.381 77.697.003 2.809-1.173 4.604-3.961 4.604-7.005v-225.036c-8.03 5.046-24.466 8.507-43.452 8.507z" fill="#c0ecff"/><path d="m301 70.604c0-12.949 11.093-22.695 21.132-28.871-4.664.473-9.623.737-14.781.737-18.986 0-35.423-3.461-43.453-8.507l.001 225.033c0 3.044 1.794 5.832 4.603 7.005 13.685 5.715 28.321 8.277 42.861 7.699-11.103-6.561-10.363-27.594-10.363-27.594s0-151.856 0-175.502z" fill="#9bd8f9"/><ellipse cx="307.351" cy="23.19" fill="#9bd8f9" rx="48.693" ry="15.499"/><g><path d="m307.351 46.379c-28.065 0-56.383-7.17-56.383-23.189 0-16.02 28.318-23.19 56.383-23.19s56.383 7.17 56.383 23.19c0 16.018-28.318 23.189-56.383 23.189zm-40.158-23.189c4.019 2.93 17.73 7.809 40.157 7.809s36.138-4.879 40.157-7.809c-4.019-2.929-17.731-7.809-40.157-7.809-22.426-.001-36.137 4.88-40.157 7.809z" fill="#d9f3fc"/></g><path d="m305.874 372.058c74.093 40.884 123.214.69 137.123-13.327l.671-2.809s-61.679-47.214-141.728 14.01c-.001 0-.001.001-.001.001 1.304.692 2.614 1.396 3.935 2.125z" fill="#168c80"/><path d="m376.296 338.907c-21.433 1.728-46.806 9.953-74.356 31.024-.001 0-.001.001-.001.001 1.304.692 2.614 1.397 3.935 2.125 30.01 16.559 55.922 19.816 77.059 16.9-.717-.608-1.482-1.221-2.321-1.839-30.713-22.624-4.329-48.197-4.316-48.211z" fill="#1ba552"/><ellipse cx="279.542" cy="310.373" fill="#9bd8f9" rx="14.02" ry="14.02" transform="matrix(.122 -.993 .993 .122 -62.661 549.898)"/><path d="m444.203 365.797c0-3.329-.188-6.621-.535-9.876-12.94 13.33-62.46 55.578-137.794 14.01-71.976-39.715-119.437-23.761-134.544-16.493-.544 4.059-.832 8.181-.832 12.359 0 61.913 61.271 112.102 136.852 112.102 75.582.001 136.853-50.189 136.853-112.102z" fill="#68c37d"/><path d="m276.185 438.458-15.353-27.476c-15.168-5.767-10.21-21.07-10.21-21.07l-.579-13.08c-7.122-17.58 8.109-26.823 8.115-26.827-45.28-12.587-75.367-2.082-86.828 3.432-.544 4.059-.832 8.181-.832 12.359 0 58.656 54.998 106.782 125.054 111.683-24.75-12.995-19.367-39.021-19.367-39.021z" fill="#168c80"/><path d="m192.933 349.814c.575-.654 1.139-1.309 1.692-1.966 6.024-7.147 5.823-17.659-.314-24.709l-23.322-26.787c-.033.075-.054.153-.09.227-3.061 6.388-7.78 13.48-13.826 20.357-6.045 6.877-12.475 12.466-18.417 16.32-.069.045-.144.076-.214.118l29.571 19.706c7.709 5.139 18.354 4.203 24.92-3.266z" fill="#9bd8f9"/><path d="m180.167 335.307-19.186-17.954c-.839-.785-1.895-1.267-3.02-1.459-.298.347-.584.696-.888 1.043-6.045 6.877-12.475 12.466-18.417 16.32-.069.045-.144.076-.214.118l29.571 19.706c7.708 5.137 18.354 4.201 24.919-3.267.575-.654 1.139-1.309 1.692-1.966 2.446-2.902 3.848-6.361 4.261-9.916-10.586 5.321-18.718-2.625-18.718-2.625z" fill="#73c3f9"/><path d="m133.852 296.523c-10.532 11.981-22.239 20.083-30.492 21.861l27.421 15.818c2.707 1.562 6.051 1.458 8.674-.243 5.943-3.854 12.372-9.443 18.417-16.32 6.046-6.877 10.765-13.969 13.826-20.357 1.35-2.818 1.025-6.149-.871-8.633l-19.203-25.168c-.705 8.411-7.24 21.061-17.772 33.042z" fill="#c0ecff"/><path d="m157.871 317.638c.421-.479.82-.96 1.227-1.441-.563-.215-1.155-.357-1.765-.397-11.09-.727-14.455-7.344-15.447-11.949-.478-2.219-2.479-3.73-4.744-3.581-2.446.161-4.227-.391-5.531-1.282-9.923 10.619-20.58 17.743-28.252 19.395l27.421 15.818c2.707 1.562 6.051 1.458 8.673-.243 5.944-3.854 12.373-9.443 18.418-16.32z" fill="#9bd8f9"/><ellipse cx="122.211" cy="286.289" fill="#68c37d" rx="41.018" ry="15.499" transform="matrix(.66 -.751 .751 .66 -173.497 189.057)"/><g><path d="m90.051 322.871c-3.291-2.894-7.982-9.955-2.419-24.742 3.235-8.599 9.33-18.241 17.162-27.151 15.489-17.619 37.61-31.788 49.575-21.271h.001c11.966 10.52.746 34.274-14.743 51.893-12.103 13.767-36.144 33.081-49.576 21.271zm53.973-61.396c-3.609.037-14.836 5.05-27.679 19.658-12.842 14.608-16.374 26.387-15.949 29.97 3.608-.036 14.836-5.049 27.679-19.659 12.844-14.608 16.375-26.385 15.949-29.969z" fill="#d9f3fc"/></g><path d="m90.051 322.871c13.432 11.81 37.473-7.504 49.576-21.271.146-.166.289-.337.435-.504-.824-.581-1.839-.897-2.919-.826-9.2.606-9.066-8.826-9.066-8.826-12.844 14.61-24.071 19.623-27.68 19.659-.425-3.584 3.107-15.362 15.949-29.97.086-.098.171-.186.257-.283l-11.303-10.436c-.168.188-.339.375-.506.564-7.832 8.91-13.927 18.551-17.162 27.151-5.563 14.787-.872 21.848 2.419 24.742z" fill="#c0ecff"/><ellipse cx="276.185" cy="420.431" fill="#9ed369" rx="18.027" ry="18.027" transform="matrix(.707 -.707 .707 .707 -216.397 318.434)"/><ellipse cx="279.852" cy="416.153" fill="#cbed74" rx="7.582" ry="7.582" transform="matrix(.707 -.707 .707 .707 -212.298 319.774)"/><g><path d="m246.31 391.242c-.061 0-.121-.001-.182-.002l-.432-.01c-4.246-.098-7.609-3.621-7.51-7.866.099-4.247 3.655-7.601 7.866-7.51l.432.01c4.246.098 7.608 3.621 7.51 7.866-.097 4.185-3.52 7.512-7.684 7.512z" fill="#9ed369"/></g><path d="m196.252 73.962c18.521-19.729 7.892-38.063 2.978-44.53-.17-.224-.285-.469-.374-.72-11.316 2.704-22.323 6.2-32.968 10.413l-21.26 9.611c-1.183.605-2.36 1.218-3.532 1.841l-3.902 2.124c-.724.402-1.446.807-2.165 1.215l-.75.425c-.725.416-1.444.84-2.164 1.262l-7.185 4.386c-8.722 5.533-17.069 11.603-24.997 18.162l-13.23 11.765c-9.333 8.924-17.959 18.58-25.791 28.873l-13.069 18.949c-4.79 7.695-9.167 15.674-13.095 23.909l-4.072 9.015c-4.084 9.54-7.587 19.388-10.45 29.506 7.428 7.335 18.207 11.311 29.946 8.671 1.736-.391 3.391 1.043 3.24 2.816-.66 7.726 5.095 14.786 12.846 15.636 1.771.194 2.903 1.942 2.279 3.61-2.387 6.386-5.203 19.615 7.533 28.538 2.636 1.847 4.255 4.824 4.256 8.043 0 31.786 29.935 31.911 29.935 31.911l33.763-37.918c3.799-9.308 1.435-17.937-.873-23.099-1.067-2.387-.192-5.245 2.133-6.441 6.504-3.346 9.571-11.293 6.874-18.176-.652-1.664.587-3.439 2.37-3.566 18.709-1.326 32.845-18.164 30.473-37.156-.9-7.203-4.053-13.571-8.659-18.496-1.065-1.139-.898-2.97.35-3.906 11.847-8.883 15.194-25.086 8.357-37.84-.673-1.255-.286-2.794.907-3.571 17.178-11.177 11.991-27.392 9.812-32.438-.414-.954-.229-2.065.484-2.824z" fill="#9ed369"/><path d="m118.217 252.236c-.364-1.138-.36-2.337-.278-3.529.091-1.322-.852-2.605-2.273-2.891-22.167-6.435-19.715-31.373-19.715-31.373v-23.67l1.302-48.66c.854-1.195.661-2.822-.458-3.774-16.11-13.702-8.666-29.615-5.771-34.492.548-.924.505-2.085-.125-2.956-2.442-3.379-4.211-6.638-5.455-9.761-8.87 8.602-17.086 17.873-24.579 27.724l-5.008 7.262-8.015 11.622c-4.814 7.733-9.207 15.755-13.15 24.033l-4.016 8.891c-4.085 9.54-7.588 19.388-10.45 29.506 7.412 7.318 18.16 11.294 29.869 8.688 1.766-.393 3.476.968 3.319 2.77-.677 7.737 5.083 14.813 12.844 15.665 1.771.194 2.903 1.942 2.279 3.61-2.389 6.391-5.208 19.638 7.567 28.562 2.623 1.832 4.222 4.825 4.222 8.025.003 31.781 29.935 31.906 29.935 31.906l18.864-13.072 7.375-11.447 7.524-13.4c-18.508 6.383-24.19-4.185-25.807-9.239z" fill="#68c37d"/><path d="m86.269 96.616c-.012.673-.657 1.167-1.269.933-.745-.285-1.545.237-1.615 1.05-.248 2.895-.564 9.369.73 16.023.141.726-.39 1.405-1.108 1.405h-.297c-.899 0-1.588.757-1.524 1.681.183 2.625.814 7.485 2.942 13.38.235.652-.215 1.384-.889 1.384-1.017-.001-1.647 1.14-1.126 2.04 2.704 4.672 9.07 16.784 10.952 30.194.084.598-.683.921-1.049.44-7.499-9.833-10.798-22.362-11.853-27.193-.189-.866-1.236-1.202-1.895-.625-.465.407-1.181.268-1.42-.302-2.088-4.983-4.535-8.412-5.959-10.168-.501-.618-1.391-.675-1.972-.131l-.192.18c-.464.435-1.206.332-1.542-.209-1.979-3.191-4.339-5.92-6.271-7.911-4.641 6.099-9.005 12.421-13.069 18.949 1.223 1.122 2.567 2.253 4.038 3.303.517.37.573 1.117.109 1.552l-.192.18c-.581.545-.582 1.436.003 1.977 1.66 1.534 4.923 4.198 9.761 6.604.553.275.646.999.209 1.437-.619.62-.351 1.687.501 1.931 4.587 1.317 16.197 5.185 25.386 12.755.468.386.108 1.149-.487 1.029-8.871-1.789-16.706-6.612-19.719-8.644-.58-.391-1.364-.001-1.403.698-.026.465-.532.746-.959.56-3.844-1.679-7.057-2.292-8.801-2.516-.618-.079-1.15.362-1.185.984l-.01.171c-.029.526-.501.868-.979.744-4.388-1.136-8.718-1.159-10.658-1.095-.533.018-.907.526-.771 1.038.119.448-.202.889-.665.871-3.268-.121-5.736.107-7.272.326-1.418 2.973-2.774 5.982-4.074 9.02.545.213 1.113.42 1.733.609.419.128.607.615.376.988s-.045.862.376.988c1.293.386 4.082 1.085 8.124 1.384.462.034.732.508.565.939-.192.494.124 1.041.651 1.117 1.921.278 6.227.734 10.714.09.488-.07.919.322.892.814l-.012.204c-.035.622.446 1.12 1.069 1.11 1.758-.029 5.019-.284 9.026-1.527.445-.138.916.198.891.663-.039.699.697 1.174 1.317.849 3.212-1.683 11.505-5.597 20.497-6.405.812-.073 1.118 1.038.38 1.385-3.842 1.81-7.713 2.598-9.48 2.886-.43.07-.589.592-.285.933.202.226.113.576-.156.675-2.434.89-4.105 2.002-4.96 2.654-.301.23-.326.667-.057.968l.089.1c.215.241.167.604-.097.754-2.416 1.377-4.295 3.245-5.104 4.116-.227.244-.147.655.163.827.255.142.297.492.095.679-1.819 1.688-2.872 3.104-3.335 3.792-.15.223-.04.543.223.645s.371.421.223.645c-1.321 1.995-1.78 3.74-1.935 4.584-.053.288.178.546.47.526.857-.058 2.642-.317 4.774-1.404.24-.122.544.022.616.295s.377.419.616.295c.736-.382 2.262-1.269 4.145-2.885.209-.179.552-.097.664.172.136.327.535.453.803.256.957-.705 3.025-2.361 4.667-4.605.179-.245.545-.251.76-.011l.089.1c.269.301.706.327.969.053.745-.776 2.038-2.31 3.198-4.628.128-.256.486-.305.688-.079.304.341.84.242.959-.177.642-2.275 2.564-8.095 6.407-12.449.874-.99 2.144-1.538 3.465-1.538 1.32 0 2.591.548 3.465 1.538 3.843 4.354 5.765 10.175 6.407 12.449.118.419.655.518.959.177.202-.226.56-.178.688.079 1.16 2.318 2.453 3.852 3.198 4.628.262.273.7.248.969-.053l.089-.1c.215-.241.581-.234.76.011 1.641 2.244 3.71 3.901 4.667 4.605.268.198.667.071.803-.256.112-.269.456-.351.664-.172 1.883 1.616 3.409 2.502 4.145 2.885.239.124.544-.022.616-.295s.376-.417.616-.295c2.132 1.087 3.917 1.345 4.774 1.404.292.02.522-.238.469-.526-.155-.845-.613-2.589-1.935-4.584-.149-.224-.04-.543.223-.645s.374-.422.223-.645c-.463-.688-1.517-2.104-3.335-3.792-.202-.187-.159-.538.095-.679.31-.172.39-.583.163-.827-.808-.871-2.688-2.739-5.104-4.116-.263-.15-.312-.513-.097-.754l.089-.1c.269-.301.245-.738-.057-.968-.855-.653-2.526-1.764-4.96-2.654-.269-.099-.358-.449-.156-.675.304-.341.146-.863-.285-.933-1.767-.288-5.637-1.076-9.48-2.886-.738-.348-.432-1.458.38-1.385 8.993.808 17.285 4.722 20.497 6.405.62.325 1.356-.151 1.317-.849-.026-.465.446-.801.891-.663 4.006 1.243 7.267 1.498 9.025 1.527.623.01 1.103-.488 1.069-1.11l-.011-.204c-.027-.493.404-.884.892-.814 4.487.644 8.793.187 10.714-.09.528-.076.843-.623.652-1.117-.167-.432.103-.905.565-.939 4.042-.299 6.83-.997 8.124-1.384.42-.126.606-.615.375-.988-.23-.373-.043-.859.376-.988 3.726-1.141 6.095-2.801 7.156-3.668.352-.287.322-.83-.06-1.077-1.15-.744-3.689-2.132-7.518-2.854-.431-.081-.671-.544-.483-.94s-.051-.862-.483-.94c-1.328-.241-4.177-.627-8.227-.477-.463.017-.784-.424-.665-.871.136-.512-.238-1.02-.771-1.038-1.94-.064-6.27-.041-10.658 1.095-.478.124-.949-.218-.976-.711l-.011-.204c-.035-.622-.567-1.064-1.185-.985-1.744.224-4.957.838-8.801 2.516-.427.186-.933-.095-.959-.56-.039-.699-.823-1.089-1.403-.698-3.012 2.032-10.848 6.855-19.719 8.644-.595.12-.955-.643-.487-1.029 9.19-7.57 20.8-11.437 25.387-12.755.852-.245 1.119-1.311.501-1.931-.436-.438-.344-1.161.21-1.437 4.838-2.405 8.101-5.07 9.761-6.604.585-.54.584-1.432.003-1.977l-.192-.18c-.464-.435-.409-1.182.109-1.552 4.745-3.387 8.346-7.637 9.886-9.602.428-.546.225-1.35-.41-1.629-.536-.236-.681-.927-.288-1.362 3.497-3.87 5.471-6.999 6.332-8.508.279-.49.018-1.111-.528-1.253s-.803-.761-.528-1.253c2.449-4.366 3.18-8.012 3.398-9.764.073-.581-.443-1.064-1.018-.954-1.734.331-5.325 1.296-9.524 4.023-.473.307-1.108.09-1.284-.445-.177-.536-.813-.756-1.284-.446-1.45.956-4.445 3.129-8.081 6.869-.408.42-1.108.321-1.378-.199-.32-.616-1.134-.767-1.652-.304-1.861 1.664-5.869 5.532-8.942 10.486-.335.541-1.078.644-1.542.209l-.192-.18c-.581-.545-1.471-.488-1.972.131-1.424 1.756-3.871 5.185-5.959 10.168-.239.57-.955.709-1.42.302-.659-.577-1.706-.241-1.895.625-1.054 4.83-4.353 17.359-11.853 27.193-.366.48-1.133.158-1.049-.44 1.882-13.41 8.247-25.522 10.952-30.194.521-.9-.11-2.04-1.126-2.04-.675 0-1.125-.732-.889-1.384 2.128-5.894 2.759-10.755 2.942-13.38.065-.924-.625-1.681-1.524-1.681h-.297c-.718 0-1.25-.679-1.108-1.405 1.294-6.654.979-13.128.73-16.023-.07-.812-.87-1.334-1.615-1.05-.612.234-1.257-.26-1.269-.933-.108-6.071-.897-10.3-1.353-12.267-.148-.639-.842-.958-1.402-.644-.559.314-1.249-.007-1.402-.644-.444-1.858-.984-3.48-1.547-4.91-4.551 3.764-8.965 7.687-13.23 11.765-.208 1.888-.38 4.117-.426 6.702z" fill="#cbed74"/><path d="m98.212 172.353c-.005-1.319-1.14-2.37-2.485-2.239-1.171.113-2.03 1.165-2.035 2.342-.104 27.081-1.989 37.812-2.709 40.934-.125.54.289 1.054.843 1.054h4.126 4.126c.555 0 .968-.513.843-1.053-.72-3.128-2.61-13.882-2.709-41.038z" fill="#e1ffed"/><path d="m95.654 195.247c-1.168-.113-2.099-.934-2.488-1.998-.639 12.227-1.688 17.99-2.183 20.14-.125.54.289 1.054.843 1.054h4.126 4.126c.555 0 .968-.513.843-1.053-.495-2.147-1.542-7.896-2.181-20.09-.45 1.228-1.674 2.084-3.086 1.947z" fill="#cbed74"/><path d="m141.348 53.562c-.23.302-.712.099-.659-.277.131-.931.301-1.85.493-2.756-1.408.748-2.806 1.51-4.197 2.285.024.158.054.313.076.471.053.376-.429.578-.66.277-.075-.098-.144-.201-.217-.3-.925.52-1.851 1.037-2.768 1.568.082.066.167.129.249.196.294.242.068.722-.306.646-.333-.067-.664-.142-.992-.222-2.741 1.606-5.455 3.253-8.127 4.96 2.458-.966 5.623-1.939 8.945-2.238.51-.046.702.652.239.87-2.414 1.137-4.846 1.632-5.955 1.813-.27.044-.37.372-.179.586.127.142.071.362-.098.424-1.529.559-2.579 1.258-3.116 1.668-.189.144-.205.419-.036.608l.056.063c.135.151.105.379-.061.474-1.518.865-2.699 2.038-3.206 2.586-.143.154-.092.411.103.52.16.089.187.309.06.427-1.143 1.061-1.804 1.95-2.095 2.382-.094.14-.025.341.14.405s.234.265.14.405c-.83 1.254-1.118 2.35-1.216 2.88-.033.181.112.343.295.33.538-.037 1.66-.199 2.999-.882.151-.077.342.014.387.185.045.172.237.263.387.185.462-.24 1.421-.797 2.604-1.812.131-.113.347-.061.417.108.086.206.336.285.505.161.601-.443 1.901-1.483 2.932-2.893.113-.154.343-.158.478-.007l.056.063c.169.189.444.205.608.034.468-.487 1.281-1.451 2.009-2.907.081-.161.306-.191.432-.049.191.214.528.152.602-.111.403-1.429 1.611-5.086 4.025-7.821.549-.622 1.347-.966 2.177-.966.829 0 1.628.344 2.177.966 2.414 2.736 3.622 6.392 4.025 7.821.074.264.411.326.602.111.127-.142.352-.112.432.049.729 1.456 1.541 2.42 2.009 2.907.165.172.44.156.609-.034l.056-.063c.135-.151.365-.147.478.007 1.031 1.41 2.331 2.451 2.932 2.893.169.124.419.045.505-.161.07-.169.286-.22.417-.108 1.183 1.015 2.142 1.572 2.604 1.812.15.078.342-.014.387-.185s.236-.262.387-.185c1.339.683 2.461.845 2.999.882.183.012.328-.15.295-.331-.097-.531-.385-1.626-1.216-2.88-.093-.141-.025-.341.14-.405s.235-.265.14-.405c-.291-.432-.953-1.322-2.095-2.382-.127-.118-.1-.338.06-.427.195-.108.245-.366.102-.52-.508-.547-1.689-1.721-3.206-2.586-.166-.094-.196-.322-.061-.474l.056-.063c.169-.189.154-.464-.036-.608-.537-.41-1.587-1.108-3.116-1.668-.169-.062-.225-.282-.098-.424.191-.214.091-.542-.179-.586-1.11-.181-3.541-.676-5.955-1.813-.464-.218-.271-.916.239-.87 5.649.508 10.859 2.967 12.877 4.024.389.204.852-.095.828-.534-.016-.292.28-.503.56-.416 2.517.781 4.565.941 5.67.959.391.007.693-.306.671-.697l-.007-.128c-.017-.309.254-.555.56-.512 2.819.404 5.524.118 6.731-.057.331-.048.53-.392.409-.702-.105-.271.065-.569.355-.59 2.539-.188 4.291-.627 5.104-.869.264-.079.381-.386.236-.62s-.027-.54.236-.62c2.341-.717 3.829-1.76 4.496-2.304.221-.18.202-.522-.037-.676-.723-.468-2.318-1.34-4.723-1.793-.27-.051-.421-.342-.303-.59.118-.249-.032-.542-.303-.59-.835-.151-2.624-.394-5.168-.299-.291.011-.492-.266-.418-.547.085-.321-.15-.641-.484-.652-1.219-.04-3.939-.026-6.696.688-.3.078-.596-.137-.614-.446l-.007-.128c-.022-.391-.356-.668-.744-.619-1.096.14-3.114.526-5.529 1.581-.268.117-.586-.06-.602-.352-.024-.439-.517-.685-.881-.439-1.893 1.277-6.815 4.307-12.388 5.431-.374.075-.6-.404-.306-.646 5.773-4.756 13.067-7.185 15.949-8.013.535-.154.703-.824.314-1.213-.274-.275-.216-.729.132-.903 3.039-1.511 5.089-3.185 6.132-4.149.368-.34.367-.9.002-1.242l-.121-.113c-.133-.125-.19-.291-.19-.456-7.517 2.959-14.853 6.279-21.985 9.938-.85 1.598-1.832 3.192-2.971 4.685z" fill="#e1ffed"/><path d="m140.294 58.09c-.003-.828-.716-1.489-1.561-1.407-.736.071-1.275.732-1.278 1.471-.065 17.013-1.25 23.755-1.702 25.716-.078.339.181.662.53.662h2.592 2.592c.349 0 .608-.322.53-.662-.454-1.963-1.641-8.719-1.703-25.78z" fill="#e1ffed"/><path d="m165.158 438.144c-26.391-26.391-5.766-64.394-51.671-73.915-25.049-5.195-46.154-13.479-56.154-67.877-5.958-32.408-28.241-46.171-45.284-52.004-.684 7.46-1.052 15.011-1.052 22.649 0 117.151 82.232 215.075 192.12 239.252 16-28.939-15.387-45.533-37.959-68.105z" fill="#8a58bb"/><path d="m411.955 78.036c-13.998 6.614-29.288 18.469-29.288 38.714 0 37.333-12 115.94 22 139.25s50 38.191 56 65.804c3.624 16.677 12.602 28.374 24.576 31.803 10.18-26.928 15.759-56.116 15.759-86.609 0-76.06-34.66-144.024-89.047-188.962z" fill="#8a58bb"/><path d="m99.083 160.926.39.146c2.393-11.922 7.862-22.316 10.319-26.561.521-.9-.11-2.04-1.126-2.04-.675 0-1.125-.732-.889-1.384 2.128-5.894 2.759-10.755 2.942-13.38.065-.924-.625-1.681-1.524-1.681h-.297c-.718 0-1.25-.679-1.108-1.405 1.294-6.654.979-13.128.73-16.023-.07-.812-.87-1.334-1.615-1.05-.612.234-1.257-.26-1.269-.933-.08-4.502-.534-7.986-.95-10.291-4.149 1.8-8.733 5.332-8.733 12.175v57.906c-.001 2.012 1.247 3.814 3.13 4.521z" fill="#e1ffed"/><path d="m339.402 84.532c-6.271 0-11.402 5.131-11.402 11.402v118.569c0 6.271 5.131 11.402 11.402 11.402s11.402-5.131 11.402-11.402v-118.569c0-6.271-5.131-11.402-11.402-11.402z" fill="#d9f3fc"/><g fill="#e1ffed"><path d="m59 134.5c5.348 5.348 18.785 19.324 24.315 25.086 1.429 1.489 3.692 1.793 5.466.739-5.24-8.78-7.731-18.304-8.619-22.372-.189-.868-1.241-1.203-1.9-.62-.463.41-1.177.262-1.416-.308-2.089-4.985-4.538-8.415-5.961-10.169-.5-.616-1.39-.669-1.969-.127l-.192.18c-.464.435-1.206.332-1.542-.209-1.979-3.191-4.339-5.92-6.271-7.911-1.874 2.462-3.689 4.97-5.471 7.503-.016 2.507.792 5.44 3.56 8.208z"/><path d="m82.581 167.298c-6.901-2.206-12.649-5.765-15.128-7.438-.567-.383-1.33-.017-1.399.653-.05.485-.5.807-.947.612-3.851-1.684-7.07-2.299-8.816-2.523-.618-.079-1.15.362-1.185.984l-.01.171c-.029.526-.501.868-.979.744-4.388-1.136-8.718-1.159-10.658-1.095-.548.018-.929.556-.758 1.083.137.422-.239.843-.683.826-3.265-.121-5.733.107-7.268.326-.557 1.168-1.097 2.346-1.635 3.525 1.064 1.049 2.761 1.979 5.51 2.333 6.398.826 31.666 2.062 40.287 2.468 1.7.081 3.22-1.029 3.669-2.669z"/><path d="m108.196 164.536c8.334-5.65 17.486-8.681 21.435-9.815.852-.245 1.119-1.311.501-1.931-.436-.438-.344-1.161.21-1.437 4.838-2.405 8.101-5.07 9.761-6.604.585-.54.584-1.432.003-1.977l-.192-.18c-.464-.435-.409-1.182.109-1.552 4.745-3.387 8.346-7.637 9.886-9.602.428-.546.225-1.35-.41-1.629-.536-.236-.681-.927-.288-1.362 3.497-3.87 5.471-6.999 6.332-8.508.28-.49.018-1.111-.528-1.253s-.803-.761-.528-1.253c.336-.599.633-1.18.908-1.749-2.124-.715-4.962-.742-7.77 2.065-4.572 4.572-30.174 31.948-39.145 41.55-1.387 1.486-1.43 3.69-.284 5.237z"/><path d="m159.813 163.834c-.246-.054-.482-.113-.74-.161-.431-.081-.671-.544-.483-.94s-.051-.862-.483-.94c-1.328-.241-4.176-.627-8.223-.477-.443.016-.818-.405-.681-.828.17-.526-.211-1.063-.758-1.081-1.94-.064-6.27-.041-10.658 1.095-.478.124-.949-.218-.976-.711l-.011-.204c-.035-.622-.567-1.064-1.185-.985-1.746.224-4.965.839-8.816 2.523-.447.195-.897-.127-.947-.612-.069-.67-.832-1.036-1.399-.653-2.476 1.67-8.211 5.222-15.099 7.429.119 1.163.62 2.813 2.524 2.813 2.435 0 32.461-1.788 42.67-2.4 2.095-.126 3.962-1.344 4.926-3.208z"/><path d="m124.418 188.462c-.202-.187-.159-.538.095-.679.31-.172.39-.583.163-.827-.808-.871-2.688-2.739-5.104-4.116-.263-.15-.312-.513-.097-.754l.089-.1c.269-.301.245-.738-.057-.968-.855-.653-2.526-1.764-4.96-2.654-.269-.099-.358-.449-.156-.675.304-.341.146-.863-.285-.933-1.272-.208-3.641-.682-6.299-1.603-.537.993-.994 2.662.628 4.284 2.531 2.531 15.5 14.313 15.5 14.313s1.559 1.239 3.692.316c-.104-.173-.206-.345-.324-.521-.149-.224-.04-.543.223-.645s.374-.422.223-.645c-.459-.689-1.513-2.105-3.331-3.793z"/><path d="m86.125 177.25c-2.219 2.219-18.313 16.5-18.313 16.5s-1.073 1.594-.443 3.755c.177-.081.354-.161.537-.254.24-.122.544.022.616.295s.377.419.616.295c.736-.382 2.262-1.269 4.145-2.885.209-.179.552-.097.664.172.136.327.535.453.804.256.957-.705 3.025-2.361 4.667-4.605.179-.245.545-.251.76-.011l.089.1c.269.301.706.327.969.053.745-.776 2.038-2.31 3.198-4.628.128-.256.486-.305.688-.079.304.341.84.242.959-.177.515-1.823 1.854-5.922 4.342-9.72-1.073-.313-2.855-.51-4.298.933z"/></g></g></svg>